<svg width="10" height="10" viewBox="0 0 10 10" fill="none" xmlns="http://www.w3.org/2000/svg">
<g clip-path="url(#clip0_9_3)">
<path d="M6.66664 1.15167V2.53417C7.30211 2.90106 7.79876 3.46739 8.07957 4.14531C8.36037 4.82324 8.40964 5.57488 8.21972 6.28365C8.0298 6.99243 7.61132 7.61874 7.02917 8.06544C6.44703 8.51213 5.73375 8.75426 4.99997 8.75426C4.26619 8.75426 3.55291 8.51213 2.97076 8.06544C2.38862 7.61874 1.97013 6.99243 1.78021 6.28365C1.5903 5.57488 1.63956 4.82324 1.92037 4.14531C2.20118 3.46739 2.69783 2.90106 3.3333 2.53417V1.15167C2.33799 1.5402 1.50969 2.26426 0.991575 3.19869C0.473458 4.13311 0.298082 5.2192 0.49576 6.26921C0.693438 7.31922 1.25175 8.26718 2.07419 8.94923C2.89662 9.63128 3.93151 10.0046 4.99997 10.0046C6.06843 10.0046 7.10331 9.63128 7.92575 8.94923C8.74819 8.26718 9.3065 7.31922 9.50418 6.26921C9.70185 5.2192 9.52648 4.13311 9.00836 3.19869C8.49024 2.26426 7.66195 1.5402 6.66664 1.15167Z" fill="black"/>
<path d="M5.625 0H4.375V3.33333H5.625V0Z" fill="black"/>
</g>
<defs>
<clipPath id="clip0_9_3">
<rect width="10" height="10" fill="white"/>
</clipPath>
</defs>
</svg>
